<?xml version="1.0" encoding="UTF-8" standalone="no"?><svg xmlns="http://www.w3.org/2000/svg" xmlns:xlink="http://www.w3.org/1999/xlink" clip-rule="evenodd" stroke-miterlimit="4.00" viewBox="0 0 1083 324"><desc>SVG generated by Keynote</desc><defs><linearGradient id="gradSh1.293" x1="0.0" y1="0.0" x2="100.0" y2="0.0" gradientUnits="userSpaceOnUse" gradientTransform="matrix(0.00, -1.62, -2.72, 0.00, 947.0, 163.0)"><stop offset="0.00000" stop-color="#C75352"></stop><stop offset="0.00440" stop-color="#C85352"></stop><stop offset="0.48167" stop-color="#D77F3F"></stop><stop offset="0.48240" stop-color="#D87F3F"></stop><stop offset="0.49267" stop-color="#D8803F"></stop><stop offset="0.50440" stop-color="#D8813F"></stop><stop offset="1.00000" stop-color="#E9AE2B"></stop></linearGradient><linearGradient id="gradSh2.294" x1="0.0" y1="0.0" x2="100.0" y2="0.0" gradientUnits="userSpaceOnUse" gradientTransform="matrix(0.00, -3.22, -2.72, 0.00, 677.0, 323.0)"><stop offset="0.00000" stop-color="#315E96"></stop><stop offset="0.00220" stop-color="#325F96"></stop><stop offset="0.21408" stop-color="#586F7F"></stop><stop offset="0.21481" stop-color="#596F7F"></stop><stop offset="0.41789" stop-color="#7E806A"></stop><stop offset="0.42009" stop-color="#7E8069"></stop><stop offset="0.42669" stop-color="#808069"></stop><stop offset="0.42962" stop-color="#808068"></stop><stop offset="1.00000" stop-color="#E9AE2B"></stop></linearGradient><linearGradient id="gradSh3.295" x1="0.0" y1="0.0" x2="100.0" y2="0.0" gradientUnits="userSpaceOnUse" gradientTransform="matrix(0.00, -1.62, -2.72, 0.00, 947.0, 323.0)"><stop offset="0.00000" stop-color="#315E96"></stop><stop offset="0.00293" stop-color="#325E96"></stop><stop offset="0.33504" stop-color="#635A7F"></stop><stop offset="0.33578" stop-color="#645A7F"></stop><stop offset="1.00000" stop-color="#C75352"></stop></linearGradient></defs><g transform="matrix(1.00, 0.00, -0.00, -1.00, 0.0, 324.0)"><g><clipPath id="clip-1111"><path d="M 812.0 162.0 L 1082.0 162.0 L 1082.0 2.0 L 812.0 2.0 Z M 812.0 162.0 "></path></clipPath><g clip-path="url(#clip-1111)"><g><clipPath id="clip-1112"><path d="M 811.0 1.0 L 1083.0 1.0 L 1083.0 163.0 L 811.0 163.0 Z M 811.0 1.0 "></path></clipPath><g clip-path="url(#clip-1112)"><path d="M 811.0 1.0 L 1083.0 1.0 L 1083.0 163.0 L 811.0 163.0 Z M 811.0 1.0 " fill="url(#gradSh1.293)"></path></g></g></g></g><g><clipPath id="clip-1113"><path d="M 542.0 322.0 L 812.0 322.0 L 812.0 2.0 L 542.0 2.0 Z M 542.0 322.0 "></path></clipPath><g clip-path="url(#clip-1113)"><g><clipPath id="clip-1114"><path d="M 541.0 1.0 L 813.0 1.0 L 813.0 323.0 L 541.0 323.0 Z M 541.0 1.0 "></path></clipPath><g clip-path="url(#clip-1114)"><path d="M 541.0 1.0 L 813.0 1.0 L 813.0 323.0 L 541.0 323.0 Z M 541.0 1.0 " fill="url(#gradSh2.294)"></path></g></g></g></g><g><clipPath id="clip-1115"><path d="M 812.0 322.0 L 1082.0 322.0 L 1082.0 162.0 L 812.0 162.0 Z M 812.0 322.0 "></path></clipPath><g clip-path="url(#clip-1115)"><g><clipPath id="clip-1116"><path d="M 811.0 161.0 L 1083.0 161.0 L 1083.0 323.0 L 811.0 323.0 Z M 811.0 161.0 "></path></clipPath><g clip-path="url(#clip-1116)"><path d="M 811.0 161.0 L 1083.0 161.0 L 1083.0 323.0 L 811.0 323.0 Z M 811.0 161.0 " fill="url(#gradSh3.295)"></path></g></g></g></g><g><clipPath id="clip-1117"><path d="M 1.0 1.0 L 543.0 1.0 L 543.0 323.0 L 1.0 323.0 Z M 1.0 1.0 "></path></clipPath><g clip-path="url(#clip-1117)"><path d="M 542.0 322.0 L 542.0 2.0 L 2.0 2.0 Z M 542.0 322.0 " fill="#E8AD2B"></path></g></g><g><clipPath id="clip-1118"><path d="M 1.0 1.0 L 543.0 1.0 L 543.0 323.0 L 1.0 323.0 Z M 1.0 1.0 "></path></clipPath><g clip-path="url(#clip-1118)"><path d="M 2.0 2.0 L 2.0 322.0 L 542.0 322.0 Z M 2.0 2.0 " fill="#315E96"></path></g></g></g></svg>