<?xml version="1.0" encoding="UTF-8" standalone="no"?><svg xmlns="http://www.w3.org/2000/svg" xmlns:xlink="http://www.w3.org/1999/xlink" clip-rule="evenodd" stroke-miterlimit="4.00" viewBox="0 0 273 323"><desc>SVG generated by Keynote</desc><defs><linearGradient id="gradSh1.363" x1="0.0" y1="0.0" x2="100.0" y2="0.0" gradientUnits="userSpaceOnUse" gradientTransform="matrix(0.00, -1.62, -2.72, 0.00, 136.0, 322.0)"><stop offset="0.00000" stop-color="#315E96"></stop><stop offset="0.00293" stop-color="#325E96"></stop><stop offset="0.33504" stop-color="#635A7F"></stop><stop offset="0.33578" stop-color="#645A7F"></stop><stop offset="1.00000" stop-color="#C75352"></stop></linearGradient><linearGradient id="gradSh2.364" x1="0.0" y1="0.0" x2="100.0" y2="0.0" gradientUnits="userSpaceOnUse" gradientTransform="matrix(0.00, -1.62, -2.72, 0.00, 136.0, 162.0)"><stop offset="0.00000" stop-color="#C75352"></stop><stop offset="0.00440" stop-color="#C85352"></stop><stop offset="0.48167" stop-color="#D77F3F"></stop><stop offset="0.48240" stop-color="#D87F3F"></stop><stop offset="0.49267" stop-color="#D8803F"></stop><stop offset="0.50440" stop-color="#D8813F"></stop><stop offset="1.00000" stop-color="#E9AE2B"></stop></linearGradient></defs><g transform="matrix(1.00, 0.00, -0.00, -1.00, 0.0, 323.0)"><g><clipPath id="clip-1382"><path d="M 1.0 321.0 L 271.0 321.0 L 271.0 161.0 L 1.0 161.0 Z M 1.0 321.0 "></path></clipPath><g clip-path="url(#clip-1382)"><g><clipPath id="clip-1383"><path d="M 0.0 160.0 L 272.0 160.0 L 272.0 322.0 L 0.0 322.0 Z M 0.0 160.0 "></path></clipPath><g clip-path="url(#clip-1383)"><path d="M 0.0 160.0 L 272.0 160.0 L 272.0 322.0 L 0.0 322.0 Z M 0.0 160.0 " fill="url(#gradSh1.363)"></path></g></g></g></g><g><clipPath id="clip-1384"><path d="M 1.0 161.0 L 271.0 161.0 L 271.0 1.0 L 1.0 1.0 Z M 1.0 161.0 "></path></clipPath><g clip-path="url(#clip-1384)"><g><clipPath id="clip-1385"><path d="M 0.0 0.0 L 272.0 0.0 L 272.0 162.0 L 0.0 162.0 Z M 0.0 0.0 "></path></clipPath><g clip-path="url(#clip-1385)"><path d="M 0.0 0.0 L 272.0 0.0 L 272.0 162.0 L 0.0 162.0 Z M 0.0 0.0 " fill="url(#gradSh2.364)"></path></g></g></g></g></g></svg>